<svg width="17" height="15" viewBox="0 0 17 15" fill="none" xmlns="http://www.w3.org/2000/svg">
<path d="M8.5 8.62499C8.20163 8.62499 7.91548 8.50647 7.7045 8.29549C7.49353 8.08451 7.375 7.79836 7.375 7.49999C7.375 7.20163 7.49353 6.91548 7.7045 6.7045C7.91548 6.49352 8.20163 6.37499 8.5 6.37499C8.79837 6.37499 9.08452 6.49352 9.2955 6.7045C9.50647 6.91548 9.625 7.20163 9.625 7.49999C9.625 7.79836 9.50647 8.08451 9.2955 8.29549C9.08452 8.50647 8.79837 8.62499 8.5 8.62499ZM8.104 10.8705C8.23525 11.028 8.36725 11.181 8.5 11.3272C8.63275 11.181 8.76475 11.0287 8.896 10.8705C8.63203 10.8761 8.36797 10.8761 8.104 10.8705ZM6.60775 10.7767C6.0318 10.7168 5.45965 10.6247 4.894 10.5007C4.83775 10.7632 4.795 11.0182 4.7665 11.2627C4.624 12.45 4.82275 13.1715 5.125 13.3455C5.42725 13.5202 6.151 13.3312 7.10875 12.615C7.306 12.4672 7.50475 12.303 7.70425 12.1237C7.31387 11.6956 6.9478 11.2459 6.60775 10.7767ZM12.106 10.5007C11.5683 10.6207 10.9937 10.7137 10.3923 10.7767C10.0522 11.2459 9.68613 11.6956 9.29575 12.1237C9.49525 12.3037 9.694 12.4672 9.89125 12.615C10.849 13.3312 11.5728 13.5202 11.875 13.3455C12.1772 13.1715 12.3752 12.45 12.2343 11.2627C12.2033 11.0069 12.1608 10.7527 12.1068 10.5007H12.106ZM13.1935 10.2105C13.6262 12.1897 13.399 13.7655 12.4375 14.3205C11.476 14.8755 9.99775 14.2845 8.5 12.9202C7.00225 14.2845 5.524 14.8747 4.5625 14.3197C3.601 13.7647 3.37375 12.1897 3.80575 10.2097C1.87525 9.59549 0.625 8.60999 0.625 7.49999C0.625 6.38999 1.87525 5.40524 3.80575 4.78949C3.37375 2.81024 3.601 1.23449 4.5625 0.679494C5.524 0.124494 7.00225 0.715494 8.5 2.07974C9.99775 0.715494 11.476 0.125244 12.4375 0.680244C13.399 1.23524 13.6263 2.81024 13.1943 4.79024C15.1248 5.40449 16.375 6.38999 16.375 7.49999C16.375 8.60999 15.1248 9.59474 13.1943 10.2105H13.1935ZM7.7035 2.87624C7.51277 2.7036 7.31432 2.53968 7.10875 2.38499C6.151 1.66874 5.42725 1.47974 5.125 1.65449C4.82275 1.82849 4.62475 2.54999 4.76575 3.73724C4.79575 3.98249 4.83775 4.23674 4.89325 4.49924C5.45915 4.37529 6.03154 4.28315 6.60775 4.22324C6.964 3.73349 7.3315 3.28274 7.70425 2.87624H7.7035ZM10.3923 4.22324C10.9937 4.28624 11.5683 4.37999 12.106 4.49924C12.1623 4.23674 12.205 3.98174 12.2335 3.73724C12.376 2.54999 12.1772 1.82849 11.875 1.65449C11.5728 1.47974 10.849 1.66874 9.89125 2.38499C9.68543 2.53966 9.48673 2.70358 9.29575 2.87624C9.6685 3.28274 10.036 3.73349 10.3923 4.22324ZM8.896 4.12949C8.76475 3.97199 8.63275 3.81899 8.5 3.67274C8.36725 3.81899 8.23525 3.97124 8.104 4.12949C8.36797 4.12389 8.63203 4.12389 8.896 4.12949ZM5.779 9.52799C5.64217 9.30232 5.51014 9.07377 5.383 8.84249C5.31175 9.03524 5.24575 9.22499 5.18575 9.41324C5.3785 9.45524 5.5765 9.49349 5.77825 9.52799H5.779ZM7.228 9.70349C8.07483 9.76639 8.92517 9.76639 9.772 9.70349C10.2499 9.00146 10.6751 8.26494 11.044 7.49999C10.6751 6.73505 10.2499 5.99853 9.772 5.29649C8.92517 5.2336 8.07483 5.2336 7.228 5.29649C6.7501 5.99853 6.32493 6.73505 5.956 7.49999C6.32493 8.26494 6.7501 9.00146 7.228 9.70349ZM11.617 6.15749C11.6883 5.96474 11.7543 5.77499 11.8143 5.58674C11.6176 5.54408 11.4201 5.50582 11.2218 5.47199C11.3583 5.69767 11.4901 5.92623 11.617 6.15749ZM4.0975 5.87774C3.8425 5.96024 3.601 6.05024 3.3745 6.14774C2.27575 6.61874 1.75 7.15124 1.75 7.49999C1.75 7.84874 2.275 8.38124 3.3745 8.85224C3.601 8.94974 3.8425 9.03974 4.0975 9.12224C4.264 8.59724 4.47025 8.05274 4.71625 7.49999C4.47987 6.97122 4.27329 6.42962 4.0975 5.87774ZM5.185 5.58674C5.24575 5.77424 5.31175 5.96474 5.383 6.15674C5.51015 5.92572 5.64218 5.69742 5.779 5.47199C5.5765 5.50649 5.3785 5.54474 5.18575 5.58674H5.185ZM12.9025 9.12224C13.1575 9.03974 13.399 8.94974 13.6255 8.85224C14.7242 8.38124 15.25 7.84874 15.25 7.49999C15.25 7.15124 14.725 6.61874 13.6255 6.14774C13.3887 6.04687 13.1475 5.95678 12.9025 5.87774C12.736 6.40274 12.5297 6.94724 12.2838 7.49999C12.5297 8.05274 12.736 8.59649 12.9025 9.12224ZM11.815 9.41324C11.7543 9.22574 11.6883 9.03524 11.617 8.84324C11.4899 9.07427 11.3578 9.30257 11.221 9.52799C11.4235 9.49349 11.6215 9.45524 11.8143 9.41324H11.815Z" fill="#FFFEFE"/>
</svg>
